<?xml version="1.0" ?><svg viewBox="0 0 64 64" xmlns="http://www.w3.org/2000/svg"><defs><style>.cls-1{fill:#fcb316;}.cls-2{fill:#ffcb29;}.cls-3{fill:#ef5451;}.cls-4{fill:#455b64;}</style></defs><g id="Icon"><path class="cls-1" d="M60,32A28.02,28.02,0,0,1,34,59.92c-.66.06-1.33.08-2,.08A28,28,0,0,1,32,4c.67,0,1.34.02,2,.08A28.02,28.02,0,0,1,60,32Z"/><ellipse class="cls-2" cx="34" cy="32" rx="26" ry="27.92"/><path class="cls-3" d="M32,42.587a21.482,21.482,0,0,1-11.537-3.345,1,1,0,1,1,1.074-1.687,19.56,19.56,0,0,0,20.926,0,1,1,0,1,1,1.074,1.687A21.482,21.482,0,0,1,32,42.587Z"/><ellipse class="cls-4" cx="42" cy="27.398" rx="4" ry="6"/><ellipse class="cls-4" cx="22" cy="27.398" rx="4" ry="6"/></g></svg>