<svg width="600" height="396" viewBox="0 0 600 396" fill="none" xmlns="http://www.w3.org/2000/svg">
    <path d="M0.613397 8.11627C-0.127463 3.97812 3.0538 0.176758 7.25774 0.176758H122.164C125.268 0.176758 127.973 2.29452 128.717 5.30866L176.838 200.197C177.232 201.794 177.029 203.481 176.268 204.939L80.8452 387.662C77.866 393.366 69.3518 392.062 68.2176 385.727L0.613397 8.11627Z" fill="#CB99FA"/>
    <path d="M599.801 8.10748C600.542 3.96934 597.361 0.167969 593.157 0.167969H478.251C475.147 0.167969 472.442 2.28573 471.698 5.29987L423.577 200.188C423.183 201.785 423.386 203.472 424.147 204.93L519.569 387.653C522.549 393.358 531.063 392.053 532.197 385.718L599.801 8.10748Z" fill="#CB99FA"/>
    <path fill-rule="evenodd" clip-rule="evenodd" d="M294.105 4.12107L210.997 186.822L108.52 385.406C105.475 391.306 111.885 397.596 117.727 394.44L271.359 311.435L293.588 175.652C294.824 168.107 305.676 168.107 306.911 175.652L329.14 311.435L482.772 394.44C488.614 397.596 495.024 391.306 491.979 385.406L389.503 186.822L306.394 4.12108C303.995 -1.15233 296.504 -1.15234 294.105 4.12107Z" fill="#B36BF6"/>
</svg>