<svg width="600" height="396" viewBox="0 0 600 396" fill="none" xmlns="http://www.w3.org/2000/svg">
    <path d="M0.570428 8.39166C-0.170432 4.25351 3.01083 0.452148 7.21477 0.452148H122.121C125.225 0.452148 127.93 2.56991 128.674 5.58405L176.795 200.472C177.189 202.069 176.986 203.756 176.225 205.214L80.8022 387.937C77.823 393.641 69.3088 392.337 68.1746 386.002L0.570428 8.39166Z" fill="#F2E3FF"/>
    <path d="M599.758 8.38287C600.499 4.24473 597.318 0.443359 593.114 0.443359H478.208C475.104 0.443359 472.399 2.56112 471.655 5.57526L423.534 200.463C423.14 202.06 423.343 203.747 424.104 205.205L519.526 387.928C522.506 393.633 531.02 392.328 532.154 385.993L599.758 8.38287Z" fill="#F2E3FF"/>
    <path fill-rule="evenodd" clip-rule="evenodd" d="M294.062 4.39646L210.954 187.097L108.477 385.681C105.432 391.581 111.842 397.871 117.684 394.715L271.316 311.71L293.545 175.927C294.781 168.382 305.633 168.382 306.868 175.927L329.097 311.71L482.729 394.715C488.571 397.871 494.981 391.581 491.936 385.681L389.46 187.097L306.351 4.39647C303.952 -0.876943 296.461 -0.876952 294.062 4.39646Z" fill="white"/>
</svg>