<svg width="973" height="275" viewBox="0 0 973 275" fill="none" xmlns="http://www.w3.org/2000/svg">
    <path d="M50.3938 93.0532L50.3938 25.1969C50.3938 11.281 39.1127 0 25.1969 0C11.281 0 0 11.281 0 25.1969L0 231.31C0 249.773 14.9679 264.741 33.4317 264.741C46.3594 264.741 58.1285 257.288 63.6548 245.601L108.631 150.484C110.349 146.851 114.007 144.534 118.026 144.534C123.765 144.534 128.418 149.187 128.418 154.926V228.821C128.418 248.659 144.5 264.741 164.338 264.741C178.167 264.741 190.769 256.802 196.739 244.328L295.014 38.9915C303.666 20.9147 290.489 0 270.448 0C261.22 0 252.62 4.67273 247.599 12.4148L190.75 100.067C188.392 103.702 184.354 105.896 180.021 105.896C172.958 105.896 167.233 100.171 167.233 93.1083V24.6982C167.233 11.0578 156.175 0 142.534 0C133.437 0 125.076 5.00158 120.773 13.0176L74.5532 99.1272C72.3158 103.296 67.9679 105.896 63.237 105.896C56.1439 105.896 50.3938 100.146 50.3938 93.0532Z" fill="white"/>
    <path d="M359.196 129.926C366.315 114.66 359.71 96.5129 344.444 89.3941V89.3941C329.177 82.2752 311.03 88.8801 303.911 104.147L249.383 221.083C242.264 236.35 248.869 254.497 264.135 261.615V261.615C279.402 268.734 297.548 262.129 304.667 246.863L359.196 129.926Z" fill="white"/>
    <path fill-rule="evenodd" clip-rule="evenodd" d="M894.53 89.349C879.264 82.2301 861.117 88.8351 853.998 104.102L799.471 221.036C792.352 236.303 798.957 254.449 814.223 261.568C814.224 261.568 814.224 261.569 814.224 261.569C818.308 263.599 822.912 264.74 827.782 264.74L941.935 264.74C958.779 264.74 972.434 251.085 972.434 234.24C972.434 217.396 958.779 203.74 941.935 203.74H895.248C885.738 203.74 879.447 193.865 883.466 185.246L909.283 129.881C916.402 114.615 909.797 96.4679 894.53 89.349Z" fill="white"/>
    <path fill-rule="evenodd" clip-rule="evenodd" d="M647.085 145.236C631.681 145.236 619.193 132.749 619.193 117.344C619.193 101.94 631.681 89.4521 647.085 89.4521H766.301C773.455 89.4521 779.979 92.1452 784.916 96.5729C787.481 98.3812 789.782 100.656 791.685 103.375C800.521 115.994 797.454 133.386 784.836 142.221L720.114 187.54C710.685 194.142 715.357 208.957 726.866 208.957V208.957C742.271 208.957 754.758 221.445 754.758 236.849C754.758 252.253 742.271 264.741 726.866 264.741L601.501 264.741C586.097 264.741 573.609 252.253 573.609 236.849C573.609 230.886 575.48 225.36 578.668 220.827C580.543 218 582.968 215.47 585.915 213.407L653.63 165.993C662.767 159.595 658.24 145.236 647.085 145.236V145.236Z" fill="white"/>
    <path fill-rule="evenodd" clip-rule="evenodd" d="M424.842 145.236C409.438 145.236 396.95 132.749 396.95 117.344C396.95 101.94 409.438 89.4521 424.842 89.4521H544.058C551.212 89.4521 557.737 92.1452 562.674 96.5729C565.238 98.3812 567.539 100.656 569.443 103.375C578.278 115.994 575.212 133.386 562.593 142.221L497.871 187.54C488.443 194.142 493.114 208.957 504.624 208.957V208.957C520.028 208.957 532.516 221.445 532.516 236.849C532.516 252.253 520.028 264.741 504.624 264.741L379.259 264.741C363.854 264.741 351.367 252.253 351.367 236.849C351.367 230.886 353.238 225.36 356.425 220.827C358.3 218 360.726 215.47 363.672 213.407L431.387 165.993C440.524 159.595 435.997 145.236 424.842 145.236V145.236Z" fill="white"/>
</svg>